# xmcd
#
# Track frame offsets:
#	150
#	17245
#	29402
#	42747
#	60357
#	76430
#	90347
#	101222
#	116567
#	134660
#	150017
#	166427
#	182710
#	198312
#
# Disc length: 2860 seconds
#
# Revision: 0
# Processed by: cddbd v1.5.1PL0 Copyright (c) Steve Scherf et al.
# Submitted via: dBpowerAMP V4.0
#
DISCID=b40b2a0e
DTITLE=Os Mirins - de todos os tempos
DYEAR=2001
DGENRE=Country
TTITLE0=Alma Campeira
TTITLE1=Cantador de Vaneirinha
TTITLE2=Gaúcho e Fandangueiro
TTITLE3=Devoto de São Corcóvio
TTITLE4=Minha Santa Chamazera
TTITLE5=Bombachudo
TTITLE6=Pode de Parar
TTITLE7=Afundando o Chão
TTITLE8=Pensando em Ti
TTITLE9=Trancão de Bagaceira
TTITLE10=Quando o Rio Grande Abre o Peito
TTITLE11=Doce Carinho
TTITLE12=É Nisto que Boto Fé
TTITLE13=Voltando a ser Feliz
EXTD=
EXTT0=
EXTT1=
EXTT2=
EXTT3=
EXTT4=
EXTT5=
EXTT6=
EXTT7=
EXTT8=
EXTT9=
EXTT10=
EXTT11=
EXTT12=
EXTT13=
PLAYORDER=
